<svg xmlns="http://www.w3.org/2000/svg" version="1.1" xmlns:xlink="http://www.w3.org/1999/xlink" width="35" height="35" x="0" y="0" viewBox="0 0 512 512" style="enable-background:new 0 0 512 512" xml:space="preserve" class=""><g><path d="M118.575 131.047c-4.007 0-7.267-3.26-7.267-7.267 0-2.709-2.195-4.902-4.902-4.902s-4.902 2.192-4.902 4.902c0 7.696 5.154 14.144 12.169 16.267v4.734c0 2.709 2.195 4.902 4.902 4.902s4.902-2.192 4.902-4.902v-4.734c7.014-2.122 12.169-8.571 12.169-16.267 0-9.411-7.657-17.07-17.07-17.07-4.007 0-7.267-3.26-7.267-7.267s3.26-7.267 7.267-7.267 7.267 3.26 7.267 7.267c0 2.709 2.195 4.902 4.902 4.902s4.902-2.192 4.902-4.902c0-7.696-5.154-14.145-12.169-16.267v-4.733c0-2.709-2.195-4.902-4.902-4.902s-4.902 2.192-4.902 4.902v4.733c-7.014 2.122-12.169 8.571-12.169 16.267 0 9.411 7.657 17.07 17.07 17.07 4.007 0 7.267 3.26 7.267 7.267-.001 4.007-3.261 7.267-7.267 7.267z" fill="#ffffff" opacity="1" data-original="#ffffff" class=""></path><path d="M468.394 319.397c5.715-6.386 6.617-14.587 3.924-21.719-2.22-5.877-6.789-10.119-12.248-12.176l5.912-27.542c1.446-6.735-1.02-13.562-6.429-17.817-5.412-4.251-12.628-5.046-18.825-2.049a8.09 8.09 0 0 1-9.634-2.011l-10.625-12.336c-3.432-3.983-8.313-6.376-13.679-6.218a17.857 17.857 0 0 0-13.583 6.4l-8.26 9.851v-56.256c0-18.755-15.259-34.012-34.012-34.012H346.4l-31.147-43.988a15.742 15.742 0 0 0-12.824-6.616c-5.091.005-9.883 2.475-12.817 6.616l-31.174 43.988h-32.654l34.833-44.922-.654 15.458a4.899 4.899 0 0 0 4.689 5.103c2.524.168 4.987-1.866 5.105-4.691l1.324-31.302a4.895 4.895 0 0 0-5.723-5.036l-31.948 5.462a4.902 4.902 0 0 0-4.007 5.658c.457 2.666 2.989 4.476 5.658 4.002l19.943-3.408-41.623 53.676h-49.096c6.336-9.051 10.086-20.038 10.086-31.901 0-30.766-25.031-55.797-55.797-55.797-30.768 0-55.8 25.031-55.8 55.797 0 11.862 3.749 22.85 10.086 31.901H54.395c-18.753 0-34.009 15.256-34.009 34.012V377.54h-4.112c-5.663 0-10.271 4.61-10.271 10.273v33.251c0 10.905 8.875 19.78 19.782 19.78h303.388c21.556 11.465 51.362 15.342 75.977 15.342 48.569 0 100.845-15.462 100.845-49.411.002-35.277-14.699-66.768-37.601-87.378zm-5.133-17.947c2.252 5.96-.903 12.939-7.329 14.73h-.002a189.073 189.073 0 0 1-101.564 0c-6.047-1.685-9.765-8.28-7.214-15.036 2.068-5.48 7.894-8.385 13.492-6.831a166.732 166.732 0 0 0 89.01 0c5.61-1.585 11.429 1.369 13.607 7.137zm-74.795-56.606 12.255-14.62a8.082 8.082 0 0 1 6.139-2.891h.055a8.077 8.077 0 0 1 6.125 2.81l10.625 12.336c5.268 6.123 14.04 7.961 21.319 4.442 2.843-1.364 6.024-1.024 8.507.929 2.484 1.953 3.569 4.964 2.908 8.052l-6.091 28.376c-1.089.126-2.181.283-3.272.585a156.91 156.91 0 0 1-83.773 0c-.701-.194-1.402-.255-2.104-.376l-7.147-26.22c-.826-3.025.079-6.08 2.42-8.162 2.338-2.087 5.474-2.633 8.389-1.47l3.277 1.316a17.833 17.833 0 0 0 20.368-5.107zm-13.322-67.32v63.814c-1.137.055-2.286-.04-3.394-.482l-3.279-1.316h-.002c-6.343-2.547-13.456-1.307-18.559 3.246-5.101 4.543-7.154 11.465-5.357 18.057l6.622 24.296c-5.9 1.92-10.887 6.434-13.31 12.846-2.564 6.786-1.672 15.031 4.039 21.413-5.631 5.068-10.761 10.792-15.303 17.071v-165.23h9.052a15.66 15.66 0 0 0 13.964-8.492c1.532-2.96 2.022-6.239 1.573-9.405 13.229.14 23.954 10.923 23.954 24.182zm-77.533-72.331c2.233-3.145 7.415-3.145 9.643 0l33.222 46.917c1.304 1.843 1.467 4.136.433 6.137-1.034 1.996-2.997 3.188-5.256 3.188h-13.954a4.9 4.9 0 0 0-4.902 4.902v186.411a115.152 115.152 0 0 0-1.648 3.495h-27.081V166.337a4.901 4.901 0 0 0-4.902-4.902H269.21c-2.267 0-4.239-1.197-5.278-3.207-1.032-1.996-.871-4.284.428-6.118zM118.575 65.618c25.362 0 45.994 20.632 45.994 45.994s-20.632 45.994-45.994 45.994-45.996-20.632-45.996-45.994 20.634-45.994 45.996-45.994zM30.19 177.524c0-13.346 10.859-24.208 24.205-24.208h27.237c9.853 8.737 22.769 14.093 36.943 14.093 14.173 0 27.088-5.356 36.94-14.093h50.264l-22.978 29.632-36.599-18.554a4.894 4.894 0 0 0-6.202 1.517l-34.737 48.54-13.812-16.381a4.897 4.897 0 0 0-3.748-1.742H52.629a4.9 4.9 0 0 0-4.902 4.902 4.901 4.901 0 0 0 4.902 4.902h32.796l16.407 19.459a4.907 4.907 0 0 0 3.748 1.742c1.588 0 3.07-.766 3.985-2.049l35.958-50.244 36.455 18.483a4.891 4.891 0 0 0 6.089-1.369l30.114-38.837h35.471c-.451 3.167.038 6.451 1.571 9.416a15.683 15.683 0 0 0 13.985 8.507h9.055v185.003h-17.051V184.968a4.901 4.901 0 0 0-4.902-4.902h-38.528a4.9 4.9 0 0 0-4.902 4.902v171.274h-16.659V229.88a4.901 4.901 0 0 0-4.902-4.902h-38.528a4.9 4.9 0 0 0-4.902 4.902v126.363h-16.853v-78.837a4.901 4.901 0 0 0-4.902-4.902H87.607a4.9 4.9 0 0 0-4.902 4.902v78.837h-5.582c-2.707 0-4.902 2.192-4.902 4.902s2.195 4.902 4.902 4.902h234.05c-1.31 3.735-2.418 7.578-3.368 11.494H277.95c-8.413 0-15.256 6.845-15.256 15.256v2.379a5.458 5.458 0 0 1-5.452 5.452H148.091a5.458 5.458 0 0 1-5.452-5.452v-2.379c0-8.411-6.845-15.256-15.259-15.256H30.19zm221.219 178.718h-28.724V189.87h28.724zm-64.991 0h-28.724v-121.46h28.724zm-65.184 0H92.509v-73.935h28.724v73.935zm-95.448 74.797c-5.503 0-9.979-4.476-9.979-9.976v-33.251c0-.258.208-.469.467-.469H127.38a5.46 5.46 0 0 1 5.455 5.452v2.379c0 8.411 6.843 15.256 15.256 15.256h109.151c8.413 0 15.256-6.845 15.256-15.256v-2.379a5.458 5.458 0 0 1 5.452-5.452h27.896a124.863 124.863 0 0 0-1.544 19.43c0 9.106 3.868 17.255 11.127 24.265H25.786zm379.365 15.343c-45.244 0-91.044-13.605-91.044-39.608 0-33.358 14.26-62.976 36.229-81.708 10.257 3.687 33.005 7.858 54.813 7.858 21.785 0 44.433-4.15 54.776-7.844 21.982 18.728 36.268 48.326 36.268 81.693 0 26.004-45.8 39.609-91.042 39.609z" fill="#ffffff" opacity="1" data-original="#ffffff" class=""></path><path d="M405.149 356.965c5.436 0 9.856 4.423 9.856 9.856 0 2.709 2.195 4.902 4.902 4.902s4.902-2.192 4.902-4.902c0-9.14-6.296-16.773-14.758-18.966v-6.505c0-2.709-2.195-4.902-4.902-4.902s-4.902 2.192-4.902 4.902v6.505c-8.462 2.193-14.758 9.827-14.758 18.966 0 10.843 8.82 19.66 19.66 19.66 5.436 0 9.856 4.423 9.856 9.856s-4.421 9.856-9.856 9.856-9.856-4.423-9.856-9.856c0-2.709-2.195-4.902-4.902-4.902s-4.902 2.192-4.902 4.902c0 9.14 6.296 16.773 14.758 18.966v6.5c0 2.709 2.195 4.902 4.902 4.902s4.902-2.192 4.902-4.902v-6.5c8.462-2.193 14.758-9.827 14.758-18.966 0-10.843-8.82-19.66-19.66-19.66-5.436 0-9.856-4.423-9.856-9.856-.001-5.433 4.42-9.856 9.856-9.856z" fill="#ffffff" opacity="1" data-original="#ffffff" class=""></path></g></svg>